<svg xmlns="http://www.w3.org/2000/svg" viewBox="0 0 95.15 40"><title>alea</title><path d="M33,45a4.8,4.8,0,0,0,.14-1.29,10.32,10.32,0,0,0-.43-2.79,38.32,38.32,0,0,0-1.49-4.08l-.86-2.11H15l-1,2.25a32.69,32.69,0,0,0-1.46,3.89,10.57,10.57,0,0,0-.46,2.84,9.84,9.84,0,0,0,.1,1.29H1.42v-.14A26.9,26.9,0,0,0,4.16,41,53.83,53.83,0,0,0,6.9,35.74l9.46-20.4a61.38,61.38,0,0,0,3.79-9.7h6.2a65.63,65.63,0,0,0,3.55,9.7l8.74,20.55c.83,2,1.58,3.3,1.58,3.3a15.18,15.18,0,0,1-2,5.77ZM17.56,29H28.07L23,16.63Z" transform="translate(-1.42 -5.3)"/><path d="M42.15,41.24a22.57,22.57,0,0,0,.31-4V15.86a30.36,30.36,0,0,0-.34-5.13,16.88,16.88,0,0,0-1-3.65L50.48,5.3a41.18,41.18,0,0,0-.86,5.59q-.34,3.43-.34,7.23V37.28a22.57,22.57,0,0,0,.31,4A20.09,20.09,0,0,0,50.67,45h-9.6A20.09,20.09,0,0,0,42.15,41.24Z" transform="translate(-1.42 -5.3)"/><path d="M73.34,31.66l-14.65.39c.26,2.62,1,4.51,2.33,5.66a7,7,0,0,0,4.87,1.73,9.85,9.85,0,0,0,3.29-.6,20.49,20.49,0,0,0,3.87-1.94l.09.09-2,7a16.26,16.26,0,0,1-6.63,1.34q-6.11,0-9.58-3.46T51.49,31.61a17,17,0,0,1,1.65-7.8,11.92,11.92,0,0,1,4.45-4.92,11.74,11.74,0,0,1,6.19-1.68q4.75,0,7.23,2.95t2.47,8.14A33.36,33.36,0,0,1,73.34,31.66Zm-5.19-3.45A8.37,8.37,0,0,0,67,23.33a4,4,0,0,0-3.43-1.66,4,4,0,0,0-3.29,1.54,9.33,9.33,0,0,0-1.51,5Z" transform="translate(-1.42 -5.3)"/><path d="M92.64,19.47A8.4,8.4,0,0,1,95,25.9V37.28a20.67,20.67,0,0,0,.34,4.08,16.51,16.51,0,0,0,1.2,3.6H88.22V41.84a25.71,25.71,0,0,0-4.32,3.22,6.21,6.21,0,0,1-1,0,9,9,0,0,1-6-1.83,6.18,6.18,0,0,1-2.16-5,6,6,0,0,1,1.46-4,15.59,15.59,0,0,1,5.26-3.51q3-1.44,6.72-2.93V27.2A4.51,4.51,0,0,0,87,23.81a4.65,4.65,0,0,0-3.34-1.18,12.35,12.35,0,0,0-6.58,2.07l-.1-.1,2-6.29a18.05,18.05,0,0,1,6.53-1.1Q90.24,17.21,92.64,19.47Zm-10,13.44A8.15,8.15,0,0,0,82,36.13a4,4,0,0,0,1.17,3.19,5.66,5.66,0,0,0,3.77,1,4.55,4.55,0,0,0,1.3-.14v-7.3Z" transform="translate(-1.42 -5.3)"/></svg>